<svg width="48" height="48" viewBox="0 0 48 48" fill="none" xmlns="http://www.w3.org/2000/svg">
<g clip-path="url(#clip0_5007_847)">
<mask id="mask0_5007_847" style="mask-type:luminance" maskUnits="userSpaceOnUse" x="0" y="0" width="48" height="48">
<path d="M48 0H0V48H48V0Z" fill="white"/>
</mask>
<g mask="url(#mask0_5007_847)">
<path d="M24 48C37.2548 48 48 37.2548 48 24C48 10.7452 37.2548 0 24 0C10.7452 0 0 10.7452 0 24C0 37.2548 10.7452 48 24 48Z" fill="white"/>
<path d="M0 24.0003C0 32.9003 4.85 40.6503 12 44.8003V3.20032C4.85 7.35031 0 15.1004 0 24.0003Z" fill="#F0263C"/>
<path d="M36 3.20032V44.7503C43.15 40.6503 48 32.9003 48 24.0003C48 15.1004 43.15 7.35031 36 3.20032Z" fill="#F0263C"/>
<path d="M34.9997 24.0001L32.9998 23.0001L33.9998 20.0001L30.9998 21.0001L29.9998 19.0001L26.9998 22.0001L27.9998 16.0001L26.0498 17.0001L23.9998 13.0001L21.9497 17.0001L19.9997 16.0001L20.9998 22.0001L17.9998 19.0001L16.9997 21.0001L13.9997 20.0001L14.9998 23.0001L12.9998 24.0001L18.9998 29.0001L17.9998 31.0001L22.9997 30.0001V35.0001H24.9998V30.0001L29.9998 31.0001L28.9997 29.0001L34.9997 24.0001Z" fill="#F0263C"/>
</g>
</g>
<rect x="0.5" y="0.5" width="47" height="47" rx="23.5" stroke="black" stroke-opacity="0.15"/>
<defs>
<clipPath id="clip0_5007_847">
<rect width="48" height="48" rx="24" fill="white"/>
</clipPath>
</defs>
</svg>
