<svg width="48" height="48" viewBox="0 0 48 48" fill="none" xmlns="http://www.w3.org/2000/svg">
<g clip-path="url(#clip0_5007_800)">
<mask id="mask0_5007_800" style="mask-type:luminance" maskUnits="userSpaceOnUse" x="0" y="0" width="48" height="48">
<path d="M48 0H0V48H48V0Z" fill="white"/>
</mask>
<g mask="url(#mask0_5007_800)">
<path d="M24 48C37.2548 48 48 37.2548 48 24C48 10.7452 37.2548 0 24 0C10.7452 0 0 10.7452 0 24C0 37.2548 10.7452 48 24 48Z" fill="#231D9A"/>
<path d="M26.3859 8.38687L23.9993 6.00037L21.6128 8.38687L23.9993 10.7734L26.3859 8.38687Z" fill="#FFD400"/>
<path d="M18.4266 10.1788L16.0401 7.79221L13.6536 10.1788L16.0401 12.5653L18.4266 10.1788Z" fill="#FFD400"/>
<path d="M12.5643 16.0409L10.1778 13.6544L7.79126 16.0409L10.1778 18.4274L12.5643 16.0409Z" fill="#FFD400"/>
<path d="M10.7742 24.0001L8.38774 21.6136L6.00122 24.0001L8.38774 26.3867L10.7742 24.0001Z" fill="#FFD400"/>
<path d="M12.5818 31.9886L10.1953 29.6021L7.80872 31.9886L10.1953 34.3751L12.5818 31.9886Z" fill="#FFD400"/>
<path d="M18.401 37.8026L16.0144 35.416L13.6279 37.8026L16.0144 40.1891L18.401 37.8026Z" fill="#FFD400"/>
<path d="M32.0665 40.1892L29.6799 37.8027L32.0665 35.4161L34.453 37.8027L32.0665 40.1892Z" fill="#FFD400"/>
<path d="M26.3859 39.6135L23.9993 37.227L21.6128 39.6135L23.9993 42L26.3859 39.6135Z" fill="#FFD400"/>
<path d="M40.2029 31.9604L37.8164 29.5739L35.4298 31.9604L37.8164 34.3469L40.2029 31.9604Z" fill="#FFD400"/>
<path d="M41.9996 24.0001L39.6131 21.6136L37.2266 24.0001L39.6131 26.3867L41.9996 24.0001Z" fill="#FFD400"/>
<path d="M40.1897 16.016L37.8032 13.6295L35.4167 16.016L37.8032 18.4025L40.1897 16.016Z" fill="#FFD400"/>
<path d="M34.3765 10.1956L31.99 7.80908L29.6035 10.1956L31.99 12.5822L34.3765 10.1956Z" fill="#FFD400"/>
</g>
</g>
<rect x="0.5" y="0.5" width="47" height="47" rx="23.5" stroke="black" stroke-opacity="0.15"/>
<defs>
<clipPath id="clip0_5007_800">
<rect width="48" height="48" rx="24" fill="white"/>
</clipPath>
</defs>
</svg>
